<?xml version="1.0" standalone="no"?>
<!DOCTYPE svg PUBLIC "-//W3C//DTD SVG 20010904//EN"
 "http://www.w3.org/TR/2001/REC-SVG-20010904/DTD/svg10.dtd">
<svg version="1.0" xmlns="http://www.w3.org/2000/svg"
 width="512.000000pt" height="512.000000pt" viewBox="0 0 512.000000 512.000000"
 preserveAspectRatio="xMidYMid meet">

<g transform="translate(0.000000,512.000000) scale(0.100000,-0.100000)"
fill="#000000" stroke="none">
<path d="M924 4889 c-3 -6 7 -25 24 -42 23 -25 2089 -2289 2175 -2385 l21 -23
-27 -27 -28 -27 -57 60 c-279 293 -1485 1545 -1488 1545 -2 0 333 -374 745
-831 l748 -831 -33 -56 c-19 -30 -32 -57 -29 -60 2 -2 24 12 48 32 118 97 325
194 504 237 166 41 376 25 541 -40 29 -12 56 -21 59 -21 15 0 -47 56 -102 92
-41 27 -224 211 -600 602 -607 631 -879 913 -848 876 11 -14 294 -331 627
-704 333 -374 605 -681 603 -682 -1 -1 -30 3 -64 9 l-62 12 -667 695 c-366
382 -673 702 -682 710 -49 46 104 -127 643 -730 330 -369 601 -674 603 -679 5
-15 -98 -23 -116 -9 -8 7 -335 346 -726 753 -822 855 -826 860 -795 820 24
-31 1352 -1509 1417 -1577 l35 -37 -35 -14 c-19 -8 -44 -18 -55 -21 -18 -6
-207 182 -1189 1179 -643 652 -1172 1185 -1176 1185 -4 0 -10 -5 -14 -11z"/>
<path d="M275 4240 c-4 -6 1 -21 12 -33 10 -11 523 -558 1141 -1214 617 -656
1122 -1196 1122 -1200 0 -14 -35 -93 -41 -93 -4 0 -355 350 -780 777 -426 428
-758 759 -739 736 19 -23 361 -391 760 -818 l725 -777 -2 -50 c-3 -53 -9 -70
-21 -51 -4 6 -304 309 -667 674 -363 365 -651 652 -640 639 22 -28 1188 -1294
1266 -1375 44 -45 49 -56 55 -110 l6 -60 -108 110 c-257 261 -1194 1203 -1194
1200 0 -2 304 -333 676 -736 371 -404 695 -763 718 -799 39 -59 96 -123 96
-107 0 3 -9 30 -21 59 -61 155 -78 361 -44 523 35 168 124 366 222 496 29 39
53 73 53 75 0 3 -27 -9 -59 -27 l-59 -33 -798 800 c-438 439 -775 774 -747
744 28 -30 373 -401 767 -823 394 -423 716 -772 716 -776 0 -4 -11 -18 -25
-31 l-26 -24 -247 245 c-528 524 -2095 2064 -2102 2067 -5 2 -11 -2 -15 -8z"/>
<path d="M3597 2380 c-27 -5 -52 -11 -55 -14 -3 -3 100 -6 229 -5 174 0 228 3
209 11 -32 13 -320 20 -383 8z"/>
<path d="M3420 2335 c-278 -95 -504 -296 -632 -562 -175 -364 -133 -801 108
-1120 l32 -43 56 163 c31 89 62 180 69 202 12 37 20 43 118 92 57 28 111 52
119 52 11 1 404 -290 438 -324 3 -2 -1 -59 -8 -126 -15 -140 10 -109 -219
-270 -106 -75 -140 -104 -129 -110 8 -4 54 -19 101 -33 198 -58 427 -53 635
11 28 9 52 19 52 22 -1 3 -77 60 -171 125 -94 66 -174 127 -179 135 -9 19 -34
223 -29 239 6 18 423 332 439 331 8 0 62 -24 119 -52 l104 -52 70 -203 c38
-112 68 -204 66 -206 -2 -2 -92 -69 -199 -151 -107 -81 -199 -152 -205 -157
-25 -24 118 48 191 97 219 144 377 360 449 610 148 513 -102 1059 -588 1285
-45 21 -106 45 -135 54 l-53 15 7 -22 c3 -12 37 -109 75 -216 38 -106 65 -199
61 -206 -4 -6 -38 -51 -76 -98 l-69 -87 -271 0 -271 1 -75 94 c-41 52 -74 101
-72 110 1 8 34 103 72 212 39 109 69 200 68 204 -2 3 -32 -4 -68 -16z m-62
-534 c45 -54 82 -105 82 -113 0 -25 -151 -483 -163 -494 -24 -22 -215 -86
-230 -77 -56 32 -346 261 -346 273 0 8 34 123 77 255 l78 240 184 5 c102 3
196 7 210 8 20 1 40 -16 108 -97z m1153 89 l168 0 81 -250 c45 -138 79 -254
76 -259 -3 -4 -84 -68 -181 -141 l-175 -133 -115 43 c-63 23 -115 44 -115 46
0 2 -36 115 -80 251 -44 137 -76 252 -71 257 4 6 41 53 81 105 l73 93 45 -6
c25 -3 121 -6 213 -6z"/>
<path d="M3017 521 c77 -76 172 -145 253 -186 52 -26 27 -5 -165 139 l-170
128 82 -81z"/>
</g>
</svg>
